<svg width="1200" height="900" viewBox="0 0 1200 900" fill="none" xmlns="http://www.w3.org/2000/svg">
  <rect width="1200" height="900" rx="56" fill="#F4E8D3"/>
  <rect x="72" y="72" width="1056" height="756" rx="40" fill="#FFF9F0" stroke="#D9C8AE" stroke-width="8"/>
  <rect x="140" y="140" width="320" height="620" rx="28" fill="#D06D44"/>
  <rect x="500" y="140" width="560" height="190" rx="28" fill="#264E4A"/>
  <rect x="500" y="370" width="260" height="390" rx="28" fill="#E7D6BA"/>
  <rect x="800" y="370" width="260" height="390" rx="28" fill="#F2B97C"/>
  <path d="M234 650V250H278L362 414L448 250H492V650H448V332L370 480H352L278 334V650H234Z" fill="#FFF9F0"/>
  <path d="M576 234H984" stroke="#F6EFE2" stroke-width="18" stroke-linecap="round"/>
  <path d="M576 278H896" stroke="#F6EFE2" stroke-width="18" stroke-linecap="round" opacity="0.75"/>
  <path d="M576 598H684" stroke="#264E4A" stroke-width="16" stroke-linecap="round"/>
  <path d="M576 642H712" stroke="#264E4A" stroke-width="16" stroke-linecap="round" opacity="0.7"/>
  <path d="M872 598H980" stroke="#9A4A2F" stroke-width="16" stroke-linecap="round"/>
  <path d="M872 642H1008" stroke="#9A4A2F" stroke-width="16" stroke-linecap="round" opacity="0.7"/>
</svg>
